# Blender 3.5.0
# www.blender.org
mtllib snowflake.mtl
o Sphere
v 0.004332 0.007624 0.013997
v -0.000064 -0.002079 0.016715
v -0.003624 0.009138 0.013605
v -0.013600 0.003291 0.010073
v -0.002250 -0.015734 0.000671
v -0.007439 -0.009930 0.011464
v -0.012319 0.009962 0.003568
v -0.012231 -0.011571 -0.000785
v -0.016689 0.001156 -0.002381
v -0.008669 -0.006168 -0.013422
v -0.009371 0.005273 -0.013096
v -0.009007 0.011282 -0.008292
v -0.002982 -0.013515 -0.008158
v -0.004897 0.015453 0.000543
v 0.001420 0.002154 -0.016470
v 0.003967 -0.008094 -0.013959
v 0.004198 0.012280 -0.010208
v 0.010680 0.001618 -0.012754
v 0.008544 -0.011881 -0.008212
v 0.016041 -0.004010 -0.003492
v 0.014289 0.007711 -0.004197
v 0.012183 -0.010218 0.004342
v 0.003786 -0.015183 0.003953
v 0.013928 0.003245 0.009254
v 0.007825 -0.006652 0.013426
v 0.004871 0.015286 0.000391
v 0.008098 0.013808 0.004990
vn 0.0208 0.9559 0.2928
vn -0.3961 0.1264 0.9095
vn -0.5600 0.6310 0.5369
vn -0.4040 -0.8725 0.2749
vn -0.9172 -0.2866 0.2767
vn -0.8307 0.5292 -0.1730
vn -0.8192 -0.0339 -0.5725
vn -0.3521 -0.9142 -0.2005
vn -0.5157 -0.7256 -0.4555
vn -0.2960 0.0091 -0.9551
vn -0.1034 0.5435 -0.8330
vn -0.1582 0.6224 -0.7665
vn -0.1239 0.9183 -0.3759
vn -0.0799 -0.2559 -0.9634
vn 0.0121 0.9618 -0.2736
vn 0.3621 -0.1359 -0.9222
vn 0.1347 -0.9583 -0.2520
vn 0.3591 0.4177 -0.8346
vn 0.5987 0.5113 -0.6165
vn 0.7223 -0.3205 -0.6128
vn 0.5236 0.8103 -0.2631
vn 0.8871 0.1056 -0.4493
vn 0.5099 -0.8596 -0.0339
vn 0.9854 0.1519 0.0769
vn 0.9329 -0.2238 0.2820
vn 0.4236 -0.7555 0.4998
vn 0.0036 0.2682 0.9634
vn 0.0794 -0.7573 0.6482
vn 0.0156 -0.5659 0.8243
vn -0.0361 0.8983 0.4378
vn -0.1433 -0.8988 0.4144
vn -0.4782 -0.1315 0.8684
vn -0.4182 0.8011 0.4281
vn -0.8526 -0.3572 0.3814
vn -0.9236 0.3434 0.1702
vn -0.6146 0.7843 -0.0843
vn -0.8531 -0.3476 -0.3891
vn -0.8248 0.3827 -0.4162
vn 0.4161 0.0655 0.9069
vn 0.1089 -0.7880 -0.6059
vn -0.1299 -0.6420 -0.7556
vn 0.6155 -0.3371 -0.7124
vn 0.1898 -0.9638 -0.1874
vn 0.7566 -0.6399 -0.1346
vn 0.5760 0.8043 -0.1456
vn 0.8217 0.5340 0.1993
vn 0.8137 -0.2894 0.5041
vn 0.5581 0.5565 0.6155
vn 0.1218 0.7938 0.5959
vn 0.4707 0.0800 0.8786
vt 0.795836 0.343472
vt 0.751954 0.543625
vt 0.702285 0.310791
vt 0.598287 0.442641
vt 0.497262 0.929275
vt 0.660759 0.710870
vt 0.546046 0.282548
vt 0.482085 0.739014
vt 0.474411 0.474905
vt 0.342613 0.616716
vt 0.345752 0.405860
vt 0.382686 0.259074
vt 0.303843 0.823516
vt 0.509766 0.119247
vt 0.238070 0.453468
vt 0.203846 0.666970
vt 0.186751 0.233268
vt 0.139508 0.469402
vt 0.109747 0.761588
vt 0.996289 0.584928
vt 0.035290 0.570133
vt 0.052408 0.346826
vt 0.992171 0.399333
vt 0.000000 0.784407
vt 0.942053 0.718160
vt 0.877808 0.875529
vt 0.031154 0.911618
vt 0.907746 0.434550
vt 0.835833 0.635807
vt 0.878880 0.090880
vt 0.049944 0.101275
vt 0.000000 0.273040
vt 0.885585 0.223809
s 0
usemtl Material.001
f 27/33/1 26/30/1 14/14/1
f 2/2/2 3/3/2 4/4/2
f 4/4/3 3/3/3 7/7/3
f 5/5/4 6/6/4 8/8/4
f 4/4/5 9/9/5 8/8/5
f 7/7/6 12/12/6 9/9/6
f 9/9/7 11/11/7 10/10/7
f 5/5/8 8/8/8 13/13/8
f 8/8/9 10/10/9 13/13/9
f 10/10/10 11/11/10 15/15/10
f 11/11/11 17/17/11 15/15/11
f 11/11/12 12/12/12 17/17/12
f 12/12/13 14/14/13 17/17/13
f 10/10/14 15/15/14 16/16/14
f 17/17/15 14/14/15 26/31/15
f 15/15/16 18/18/16 16/16/16
f 13/13/17 19/19/17 5/5/17
f 15/15/18 17/17/18 18/18/18
f 17/17/19 21/22/19 18/18/19
f 18/18/20 20/21/20 19/19/20
f 17/17/21 26/31/21 21/22/21
f 20/21/22 18/18/22 21/22/22
f 19/19/23 22/24/23 23/27/23
f 20/20/24 21/23/24 24/28/24
f 20/20/25 24/28/25 22/25/25
f 23/26/26 22/25/26 25/29/26
f 2/2/27 1/1/27 3/3/27
f 25/29/28 6/6/28 23/26/28
f 25/29/29 2/2/29 6/6/29
f 27/33/30 14/14/30 3/3/30
f 23/26/31 6/6/31 5/5/31
f 2/2/32 4/4/32 6/6/32
f 3/3/33 14/14/33 7/7/33
f 4/4/34 8/8/34 6/6/34
f 7/7/35 9/9/35 4/4/35
f 14/14/36 12/12/36 7/7/36
f 9/9/37 10/10/37 8/8/37
f 9/9/38 12/12/38 11/11/38
f 1/1/39 2/2/39 25/29/39
f 13/13/40 16/16/40 19/19/40
f 10/10/41 16/16/41 13/13/41
f 18/18/42 19/19/42 16/16/42
f 5/5/43 19/19/43 23/27/43
f 20/21/44 22/24/44 19/19/44
f 26/31/45 27/32/45 21/22/45
f 27/33/46 24/28/46 21/23/46
f 24/28/47 25/29/47 22/25/47
f 24/28/48 27/33/48 1/1/48
f 27/33/49 3/3/49 1/1/49
f 1/1/50 25/29/50 24/28/50
