# Blender 3.5.0
# www.blender.org
mtllib hail.mtl
o Sphere
v 0.003799 0.006479 0.002342
v 0.002285 0.007173 0.000184
v -0.002297 0.007250 0.000255
v -0.000030 -0.000976 0.007844
v -0.001701 0.004288 0.006384
v -0.006381 0.001543 0.004728
v -0.005781 0.004674 0.001674
v -0.001057 -0.007384 0.000315
v -0.003490 -0.004659 0.005381
v -0.005740 -0.005431 -0.000368
v -0.007832 0.000543 -0.001116
v -0.004226 0.005295 -0.003891
v -0.004398 0.002475 -0.006146
v -0.004069 -0.002894 -0.006298
v -0.001398 -0.006342 -0.003828
v 0.000668 0.001012 -0.007728
v 0.001971 0.005763 -0.004790
v 0.001861 -0.003799 -0.006550
v 0.005013 0.000760 -0.005986
v 0.004009 -0.005576 -0.003852
v 0.006704 0.003618 -0.001971
v 0.007526 -0.001882 -0.001638
v 0.005716 -0.004796 0.002039
v 0.001778 -0.007126 0.001855
v 0.006535 0.001522 0.004342
v 0.003671 -0.003122 0.006301
v 0.002033 0.003576 0.006568
vn 0.4596 0.8312 0.3129
vn 0.2455 0.9683 -0.0469
vn -0.2676 0.9617 0.0592
vn -0.0311 -0.1260 0.9915
vn -0.2359 0.5906 0.7717
vn -0.7922 0.1374 0.5945
vn -0.7284 0.6569 0.1948
vn -0.1386 -0.9896 0.0396
vn -0.4451 -0.6014 0.6634
vn -0.7431 -0.6687 -0.0243
vn -0.9893 0.0384 -0.1405
vn -0.5148 0.7206 -0.4645
vn -0.5435 0.3111 -0.7796
vn -0.5232 -0.3727 -0.7664
vn -0.1692 -0.8644 -0.4735
vn 0.0677 0.1570 -0.9853
vn 0.2286 0.7619 -0.6060
vn 0.2241 -0.4780 -0.8493
vn 0.6438 0.0951 -0.7593
vn 0.5073 -0.7357 -0.4487
vn 0.8452 0.4814 -0.2323
vn 0.9534 -0.2339 -0.1907
vn 0.7378 -0.6241 0.2574
vn 0.2212 -0.9400 0.2596
vn 0.8302 0.1791 0.5279
vn 0.4516 -0.4223 0.7859
vn 0.2969 0.4635 0.8349
vt 0.000000 0.273040
vt 0.885585 0.223809
vt 0.878880 0.090880
vt 0.049944 0.101275
vt 0.509766 0.119247
vt 0.751954 0.543625
vt 0.702285 0.310791
vt 0.598287 0.442641
vt 0.546046 0.282548
vt 0.497262 0.929275
vt 0.660759 0.710870
vt 0.482085 0.739014
vt 0.474411 0.474905
vt 0.382686 0.259074
vt 0.345752 0.405860
vt 0.342613 0.616716
vt 0.303843 0.823516
vt 0.238070 0.453468
vt 0.186751 0.233268
vt 0.203846 0.666970
vt 0.139508 0.469402
vt 0.109747 0.761588
vt 0.052408 0.346826
vt 0.992171 0.399333
vt 0.996289 0.584928
vt 0.035290 0.570133
vt 0.000000 0.784407
vt 0.942053 0.718160
vt 0.877808 0.875529
vt 0.031154 0.911618
vt 0.907746 0.434550
vt 0.835833 0.635807
vt 0.795836 0.343472
s 1
usemtl Material.002
f 1/2/1 2/3/2 3/5/3
f 4/6/4 5/7/5 6/8/6
f 6/8/6 5/7/5 7/9/7
f 8/10/8 9/11/9 10/12/10
f 6/8/6 11/13/11 10/12/10
f 7/9/7 12/14/12 11/13/11
f 11/13/11 13/15/13 14/16/14
f 8/10/8 10/12/10 15/17/15
f 10/12/10 14/16/14 15/17/15
f 14/16/14 13/15/13 16/18/16
f 13/15/13 17/19/17 16/18/16
f 13/15/13 12/14/12 17/19/17
f 12/14/12 3/5/3 17/19/17
f 14/16/14 16/18/16 18/20/18
f 17/19/17 3/5/3 2/4/2
f 16/18/16 19/21/19 18/20/18
f 15/17/15 20/22/20 8/10/8
f 16/18/16 17/19/17 19/21/19
f 17/19/17 21/23/21 19/21/19
f 19/21/19 22/26/22 20/22/20
f 17/19/17 2/4/2 21/23/21
f 22/26/22 19/21/19 21/23/21
f 20/22/20 23/27/23 24/30/24
f 22/25/22 21/24/21 25/31/25
f 22/25/22 25/31/25 23/28/23
f 24/29/24 23/28/23 26/32/26
f 4/6/4 27/33/27 5/7/5
f 26/32/26 9/11/9 24/29/24
f 26/32/26 4/6/4 9/11/9
f 1/2/1 3/5/3 5/7/5
f 24/29/24 9/11/9 8/10/8
f 4/6/4 6/8/6 9/11/9
f 5/7/5 3/5/3 7/9/7
f 6/8/6 10/12/10 9/11/9
f 7/9/7 11/13/11 6/8/6
f 3/5/3 12/14/12 7/9/7
f 11/13/11 14/16/14 10/12/10
f 11/13/11 12/14/12 13/15/13
f 27/33/27 4/6/4 26/32/26
f 15/17/15 18/20/18 20/22/20
f 14/16/14 18/20/18 15/17/15
f 19/21/19 20/22/20 18/20/18
f 8/10/8 20/22/20 24/30/24
f 22/26/22 23/27/23 20/22/20
f 2/4/2 1/1/1 21/23/21
f 1/2/1 25/31/25 21/24/21
f 25/31/25 26/32/26 23/28/23
f 25/31/25 1/2/1 27/33/27
f 1/2/1 5/7/5 27/33/27
f 27/33/27 26/32/26 25/31/25
